<?xml version="1.0" encoding="utf-8"?>
<!-- Generator: Adobe Illustrator 19.0.0, SVG Export Plug-In . SVG Version: 6.00 Build 0)  -->
<svg version="1.1" id="Layer_1" xmlns="http://www.w3.org/2000/svg" xmlns:xlink="http://www.w3.org/1999/xlink" x="0px" y="0px"
	 viewBox="0 0 500 500" style="enable-background:new 0 0 500 500;" xml:space="preserve">
<style type="text/css">
	.st0{fill:#550044;}
</style>
<g id="XMLID_1_">
	<path id="XMLID_46_" class="st0" d="M67.5,232.3h7.3c4.7,0,8.2,0.6,10.5,1.7c2.3,1.2,4.2,3.1,5.7,5.7c1.5,2.6,2.2,5.7,2.2,9.2
		c0,2.5-0.4,4.8-1.2,6.9c-0.8,2.1-2,3.8-3.4,5.2c-1.5,1.4-3,2.3-4.7,2.9c-1.7,0.5-4.6,0.8-8.8,0.8h-7.4V232.3z M73.6,238.2v20.4h2.9
		c2.8,0,4.9-0.3,6.1-1c1.3-0.6,2.3-1.7,3.1-3.3c0.8-1.5,1.2-3.4,1.2-5.6c0-3.4-1-6.1-2.9-8c-1.7-1.7-4.5-2.6-8.3-2.6H73.6z"/>
	<path id="XMLID_49_" class="st0" d="M142.3,240.7h6v24h-6v-2.5c-1.2,1.1-2.4,1.9-3.5,2.4c-1.2,0.5-2.5,0.7-3.8,0.7
		c-3.1,0-5.8-1.2-8-3.6c-2.3-2.4-3.4-5.4-3.4-8.9c0-3.7,1.1-6.7,3.3-9.1c2.2-2.4,4.8-3.5,8-3.5c1.4,0,2.8,0.3,4,0.8
		c1.3,0.5,2.4,1.3,3.5,2.4V240.7z M136,245.7c-1.9,0-3.4,0.7-4.6,2c-1.2,1.3-1.9,3-1.9,5c0,2.1,0.6,3.8,1.9,5.1c1.2,1.3,2.8,2,4.6,2
		c1.9,0,3.4-0.7,4.7-2c1.3-1.3,1.9-3,1.9-5.2c0-2.1-0.6-3.8-1.9-5.1C139.5,246.3,137.9,245.7,136,245.7"/>
	<path id="XMLID_50_" class="st0" d="M154,240.7h6v2.5c1.4-1.2,2.6-1.9,3.7-2.4c1.1-0.4,2.2-0.7,3.4-0.7c2.4,0,4.4,0.8,6,2.5
		c1.4,1.4,2.1,3.5,2.1,6.3v15.8h-5.9v-10.5c0-2.9-0.1-4.8-0.4-5.7c-0.3-0.9-0.7-1.7-1.3-2.1c-0.6-0.5-1.4-0.7-2.4-0.7
		c-1.2,0-2.3,0.4-3.1,1.2c-0.9,0.8-1.5,1.9-1.8,3.4c-0.2,0.8-0.3,2.4-0.3,4.9v9.6h-6V240.7z"/>
	<path id="XMLID_53_" class="st0" d="M208.7,240.7h6v24h-6v-2.5c-1.2,1.1-2.4,1.9-3.5,2.4c-1.2,0.5-2.5,0.7-3.8,0.7
		c-3.1,0-5.8-1.2-8-3.6c-2.3-2.4-3.4-5.4-3.4-8.9c0-3.7,1.1-6.7,3.3-9.1c2.2-2.4,4.8-3.5,8-3.5c1.4,0,2.8,0.3,4,0.8
		c1.3,0.5,2.4,1.3,3.5,2.4L208.7,240.7z M202.4,245.7c-1.9,0-3.4,0.7-4.6,2c-1.2,1.3-1.8,3-1.8,5c0,2.1,0.6,3.8,1.9,5.1
		c1.2,1.3,2.8,2,4.6,2c1.9,0,3.5-0.7,4.7-2c1.2-1.3,1.9-3,1.9-5.2c0-2.1-0.6-3.8-1.9-5.1C205.9,246.3,204.3,245.7,202.4,245.7"/>
	<path id="XMLID_54_" class="st0" d="M245.2,240.7h6v2.8c1-1.1,2.2-2,3.4-2.5c1.3-0.6,2.6-0.8,4.1-0.8c1.5,0,2.9,0.4,4,1.1
		c1.2,0.7,2.2,1.8,2.9,3.2c0.9-1.4,2.1-2.5,3.5-3.2c1.4-0.7,2.9-1.1,4.5-1.1c1.7,0,3.2,0.4,4.5,1.2c1.3,0.8,2.2,1.8,2.8,3.1
		c0.6,1.3,0.8,3.4,0.8,6.2v14h-6v-12.1c0-2.7-0.3-4.6-1-5.5c-0.7-1-1.7-1.4-3-1.4c-1,0-2,0.3-2.8,0.9c-0.8,0.6-1.4,1.4-1.8,2.4
		c-0.4,1-0.6,2.7-0.6,5v10.8h-6.1v-11.6c0-2.1-0.1-3.7-0.5-4.6c-0.3-1-0.8-1.7-1.4-2.1c-0.6-0.5-1.4-0.7-2.3-0.7
		c-1,0-1.9,0.3-2.7,0.9c-0.8,0.6-1.4,1.4-1.8,2.5c-0.4,1.1-0.6,2.8-0.6,5.1v10.7h-6V240.7z"/>
	<path id="XMLID_55_" class="st0" d="M289.6,230.9c1,0,1.9,0.4,2.7,1.1c0.8,0.8,1.1,1.7,1.1,2.8c0,1.1-0.4,2-1.1,2.7
		c-0.7,0.7-1.6,1.1-2.7,1.1c-1.1,0-2-0.4-2.7-1.2c-0.8-0.8-1.1-1.7-1.1-2.8c0-1.1,0.4-2,1.1-2.7
		C287.6,231.2,288.5,230.9,289.6,230.9"/>
	<rect id="XMLID_56_" x="286.5" y="240.7" class="st0" width="6" height="24"/>
	<path id="XMLID_59_" class="st0" d="M305.7,279.6h-6.6c0,0.4,0.1,0.7,0.3,1c0.1,0.3,0.3,0.6,0.6,0.8c0.2,0.2,0.5,0.4,0.9,0.6
		c0.3,0.1,0.7,0.2,1.1,0.2c0.6,0,1.1-0.2,1.6-0.5c0.5-0.3,0.8-0.7,1-1.3h1c-0.2,0.4-0.4,0.8-0.6,1.1c-0.4,0.5-0.8,0.8-1.4,1.1
		c-0.5,0.3-1.1,0.4-1.7,0.4c-1,0-1.9-0.4-2.7-1.1c-0.7-0.7-1.1-1.6-1.1-2.7c0-0.7,0.2-1.3,0.5-2c0.3-0.6,0.8-1.1,1.4-1.4
		c0.6-0.3,1.2-0.5,1.9-0.5c0.6,0,1.3,0.2,1.9,0.5c0.6,0.3,1.1,0.8,1.4,1.4c0.3,0.6,0.5,1.2,0.5,1.9L305.7,279.6 M304.8,278.7
		c-0.1-0.4-0.2-0.7-0.3-1c-0.1-0.3-0.3-0.5-0.6-0.7c-0.2-0.2-0.5-0.4-0.9-0.6c-0.3-0.1-0.7-0.2-1.1-0.2c-0.4,0-0.7,0.1-1.1,0.2
		c-0.3,0.1-0.6,0.3-0.9,0.5c-0.2,0.2-0.4,0.5-0.6,0.8c-0.1,0.3-0.3,0.6-0.3,1H304.8z"/>
	<path id="XMLID_60_" class="st0" d="M306.6,280.7h0.9c0,0.3,0.1,0.6,0.1,0.7c0.1,0.3,0.2,0.4,0.5,0.6c0.2,0.1,0.4,0.2,0.7,0.2
		c0.4,0,0.7-0.1,1-0.3c0.2-0.2,0.4-0.5,0.4-0.9c0-0.3-0.1-0.6-0.3-0.8c-0.2-0.2-0.6-0.4-1.2-0.7c-0.5-0.2-0.8-0.3-1-0.4
		c-0.3-0.2-0.5-0.4-0.7-0.7c-0.2-0.3-0.2-0.6-0.2-0.9c0-0.6,0.2-1.1,0.6-1.5c0.4-0.4,0.9-0.6,1.5-0.6c0.4,0,0.8,0.1,1.1,0.3
		c0.3,0.2,0.6,0.5,0.7,0.8c0.1,0.2,0.2,0.5,0.2,0.9h-0.9c0-0.4-0.2-0.7-0.4-0.9c-0.2-0.2-0.4-0.3-0.7-0.3c-0.3,0-0.6,0.1-0.8,0.3
		c-0.2,0.2-0.3,0.5-0.3,0.8l0.2,0.5l0.4,0.4c0.1,0.1,0.4,0.2,0.7,0.3c0.5,0.2,0.9,0.3,1.1,0.5c0.3,0.2,0.6,0.5,0.7,0.7
		c0.2,0.3,0.2,0.7,0.2,1.1c0,0.4-0.1,0.8-0.3,1.1c-0.2,0.3-0.4,0.6-0.8,0.8c-0.3,0.2-0.7,0.3-1.2,0.3c-0.4,0-0.8-0.1-1.1-0.2
		c-0.3-0.2-0.6-0.3-0.7-0.6c-0.2-0.2-0.3-0.4-0.4-0.7C306.6,281.3,306.6,281,306.6,280.7"/>
	<polygon id="XMLID_61_" class="st0" points="313.1,282.9 313.1,276.4 311.5,276.4 311.5,275.6 313.1,275.6 313.1,273 314,273 
		314,275.6 315.7,275.6 315.7,276.4 314,276.4 314,282.9 	"/>
	<path id="XMLID_64_" class="st0" d="M323.5,275.6v7.3h-0.9v-1.3h0c-0.2,0.3-0.4,0.5-0.6,0.6c-0.3,0.2-0.6,0.4-1,0.6
		c-0.4,0.2-0.8,0.2-1.3,0.2c-0.8,0-1.4-0.2-2-0.5c-0.6-0.3-1-0.8-1.4-1.4c-0.3-0.6-0.5-1.2-0.5-1.9c0-0.7,0.2-1.3,0.5-1.9
		c0.3-0.6,0.8-1.1,1.4-1.4c0.6-0.3,1.3-0.5,2-0.5c0.5,0,0.9,0.1,1.3,0.2c0.4,0.1,0.7,0.3,1,0.6c0.2,0.2,0.4,0.4,0.6,0.7h0v-1.3
		L323.5,275.6z M316.7,279.2c0,0.5,0.1,1,0.4,1.5c0.2,0.5,0.6,0.8,1.1,1.1c0.5,0.3,1,0.4,1.5,0.4c0.5,0,1-0.1,1.5-0.4
		c0.5-0.3,0.8-0.6,1.1-1.1c0.3-0.5,0.4-1,0.4-1.5c0-0.5-0.1-1-0.4-1.5c-0.3-0.5-0.6-0.8-1.1-1.1c-0.5-0.3-0.9-0.4-1.5-0.4
		c-0.3,0-0.6,0-0.8,0.1c-0.3,0.1-0.5,0.2-0.7,0.3c-0.2,0.1-0.5,0.3-0.7,0.6c-0.2,0.2-0.4,0.5-0.5,0.9
		C316.7,278.5,316.7,278.8,316.7,279.2"/>
	<path id="XMLID_67_" class="st0" d="M325.1,282.9V273h0.9v3.9h0c0.2-0.3,0.4-0.5,0.6-0.6c0.2-0.2,0.4-0.3,0.6-0.4
		c0.3-0.1,0.5-0.2,0.8-0.3c0.3-0.1,0.6-0.1,0.9-0.1c0.5,0,1,0.1,1.5,0.3c0.5,0.2,0.9,0.5,1.2,0.8c0.3,0.3,0.6,0.7,0.8,1.1
		c0.3,0.5,0.4,1.1,0.4,1.7c0,0.7-0.2,1.3-0.5,1.9c-0.3,0.6-0.8,1.1-1.4,1.4c-0.6,0.3-1.3,0.5-1.9,0.5c-0.5,0-0.9-0.1-1.2-0.2
		c-0.4-0.1-0.7-0.3-1-0.5c-0.2-0.2-0.4-0.4-0.7-0.7h0v1.3H325.1z M326,279.2c0,0.5,0.1,1,0.4,1.5c0.3,0.5,0.6,0.8,1.1,1.1
		c0.5,0.3,1,0.4,1.5,0.4c0.5,0,1-0.1,1.5-0.4c0.5-0.3,0.8-0.6,1.1-1.1c0.2-0.5,0.4-1,0.4-1.5c0-0.6-0.1-1.1-0.4-1.5
		c-0.3-0.5-0.6-0.8-1.1-1.1c-0.5-0.3-1-0.4-1.5-0.4c-0.5,0-1,0.1-1.5,0.4c-0.5,0.3-0.8,0.6-1.1,1.1C326.1,278.2,326,278.7,326,279.2
		"/>
	<rect id="XMLID_68_" x="334.1" y="273" class="st0" width="0.9" height="9.9"/>
	<path id="XMLID_71_" class="st0" d="M336.7,273h0.9v1.7h-0.9V273z M336.7,275.6h0.9v7.3h-0.9V275.6z"/>
	<path id="XMLID_72_" class="st0" d="M338.8,280.7h0.9c0,0.3,0.1,0.6,0.1,0.7c0.1,0.3,0.3,0.4,0.5,0.6c0.2,0.1,0.4,0.2,0.7,0.2
		c0.4,0,0.7-0.1,1-0.3c0.3-0.2,0.4-0.5,0.4-0.9c0-0.3-0.1-0.6-0.3-0.8c-0.2-0.2-0.6-0.4-1.2-0.7c-0.5-0.2-0.8-0.3-1-0.4
		c-0.3-0.2-0.5-0.4-0.7-0.7c-0.2-0.3-0.2-0.6-0.2-0.9c0-0.6,0.2-1.1,0.6-1.5c0.4-0.4,0.9-0.6,1.5-0.6c0.4,0,0.8,0.1,1.1,0.3
		c0.3,0.2,0.6,0.5,0.7,0.8c0.1,0.2,0.2,0.5,0.2,0.9h-0.9c0-0.4-0.2-0.7-0.4-0.9c-0.2-0.2-0.4-0.3-0.7-0.3c-0.3,0-0.6,0.1-0.8,0.3
		c-0.2,0.2-0.3,0.5-0.3,0.8l0.2,0.5l0.4,0.4c0.1,0.1,0.4,0.2,0.7,0.3c0.5,0.2,0.9,0.3,1.1,0.5c0.3,0.2,0.6,0.5,0.7,0.7
		c0.2,0.3,0.3,0.7,0.3,1.1c0,0.4-0.1,0.8-0.3,1.1c-0.2,0.3-0.4,0.6-0.8,0.8c-0.3,0.2-0.7,0.3-1.2,0.3c-0.4,0-0.8-0.1-1.1-0.2
		c-0.3-0.2-0.5-0.3-0.7-0.6c-0.2-0.2-0.3-0.4-0.4-0.7C338.8,281.3,338.8,281,338.8,280.7"/>
	<path id="XMLID_73_" class="st0" d="M344.4,282.9V273h0.9v3.5h0c0.2-0.3,0.6-0.6,0.9-0.8c0.4-0.2,0.8-0.3,1.4-0.3
		c0.5,0,0.9,0.1,1.3,0.3c0.4,0.2,0.8,0.4,1.1,0.8c0.2,0.2,0.3,0.5,0.5,0.8c0.2,0.5,0.3,1,0.3,1.6v4h-0.9v-4c0-0.8-0.2-1.5-0.6-1.9
		c-0.4-0.5-1-0.7-1.7-0.7c-0.4,0-0.7,0.1-1,0.3c-0.3,0.2-0.6,0.4-0.8,0.6c-0.1,0.2-0.2,0.4-0.3,0.7c-0.1,0.3-0.1,0.6-0.1,1v4H344.4z
		"/>
	<path id="XMLID_76_" class="st0" d="M359.4,279.6h-6.6c0,0.4,0.1,0.7,0.3,1c0.1,0.3,0.4,0.6,0.6,0.8c0.3,0.2,0.5,0.4,0.9,0.6
		c0.3,0.1,0.7,0.2,1.1,0.2c0.6,0,1.1-0.2,1.6-0.5c0.5-0.3,0.8-0.7,1-1.3h1c-0.2,0.4-0.4,0.8-0.6,1.1c-0.4,0.5-0.8,0.8-1.4,1.1
		c-0.5,0.3-1.1,0.4-1.7,0.4c-1,0-1.9-0.4-2.7-1.1c-0.7-0.7-1.1-1.6-1.1-2.7c0-0.7,0.2-1.3,0.5-2c0.3-0.6,0.8-1.1,1.4-1.4
		c0.6-0.3,1.2-0.5,1.9-0.5c0.6,0,1.3,0.2,1.9,0.5c0.6,0.3,1.1,0.8,1.4,1.4c0.3,0.6,0.5,1.2,0.5,1.9V279.6 M358.5,278.7
		c-0.1-0.4-0.2-0.7-0.3-1c-0.1-0.3-0.3-0.5-0.6-0.7c-0.2-0.2-0.5-0.4-0.9-0.6c-0.4-0.1-0.7-0.2-1.1-0.2c-0.4,0-0.8,0.1-1.1,0.2
		c-0.3,0.1-0.6,0.3-0.9,0.5c-0.3,0.2-0.4,0.5-0.6,0.8c-0.2,0.3-0.3,0.6-0.3,1H358.5z"/>
	<path id="XMLID_79_" class="st0" d="M368.1,273v9.9h-0.9v-1.3h0c-0.2,0.3-0.4,0.5-0.6,0.7c-0.3,0.2-0.6,0.4-1,0.6
		c-0.4,0.1-0.8,0.2-1.3,0.2c-1.1,0-2-0.4-2.7-1.1c-0.8-0.7-1.1-1.6-1.1-2.7c0-0.7,0.2-1.4,0.5-2c0.3-0.6,0.8-1.1,1.4-1.4
		c0.6-0.3,1.2-0.5,1.9-0.5c0.7,0,1.3,0.1,1.8,0.4c0.4,0.2,0.8,0.6,1.1,1h0V273H368.1z M367.3,279.2c0-0.5-0.1-1-0.4-1.4
		c-0.2-0.5-0.6-0.8-1.1-1.1c-0.5-0.3-1-0.4-1.5-0.4c-0.5,0-1,0.1-1.5,0.4c-0.5,0.3-0.8,0.6-1.1,1.1c-0.3,0.5-0.4,1-0.4,1.5
		c0,0.5,0.1,1,0.4,1.5c0.3,0.5,0.6,0.8,1.1,1.1c0.5,0.3,1,0.4,1.5,0.4c0.5,0,1-0.1,1.5-0.4c0.5-0.3,0.8-0.6,1.1-1.1
		C367.1,280.2,367.3,279.8,367.3,279.2"/>
	<polygon id="XMLID_80_" class="st0" points="374,282.9 374,273.9 372.3,273.9 372.3,273 374.9,273 374.9,282.9 	"/>
	<path id="XMLID_83_" class="st0" d="M379.7,282.9h-1.1l2.3-3.3l0,0c-0.3,0.1-0.6,0.2-0.9,0.2c-0.5,0-0.9-0.1-1.3-0.3
		c-0.4-0.2-0.8-0.4-1-0.7c-0.3-0.3-0.5-0.6-0.7-0.9c-0.2-0.5-0.3-1-0.3-1.5c0-0.6,0.2-1.2,0.4-1.7c0.3-0.5,0.7-1,1.2-1.3
		c0.5-0.3,1.1-0.4,1.7-0.4c0.6,0,1.2,0.2,1.7,0.5c0.5,0.3,0.9,0.7,1.2,1.3c0.3,0.6,0.4,1.1,0.4,1.7c0,0.4-0.1,0.8-0.2,1.2
		c-0.2,0.4-0.5,1-1,1.7L379.7,282.9z M382.3,276.3c0-0.4-0.1-0.8-0.3-1.2c-0.2-0.4-0.5-0.7-0.8-1c-0.4-0.2-0.8-0.4-1.2-0.4
		c-0.4,0-0.8,0.1-1.2,0.3c-0.4,0.2-0.7,0.5-0.9,0.9c-0.2,0.4-0.3,0.8-0.3,1.3c0,0.5,0.1,0.9,0.3,1.3c0.2,0.4,0.5,0.7,0.9,0.9
		c0.4,0.2,0.8,0.3,1.2,0.3c0.4,0,0.7-0.1,1-0.2c0.3-0.1,0.5-0.3,0.8-0.6c0.2-0.2,0.4-0.5,0.5-0.8
		C382.3,276.9,382.3,276.6,382.3,276.3"/>
	<path id="XMLID_84_" class="st0" d="M384.2,282.9V282l3.5-3.3c0.5-0.5,0.9-0.9,1.2-1.2c0.2-0.3,0.4-0.5,0.5-0.8
		c0.1-0.3,0.2-0.5,0.2-0.8c0-0.3-0.1-0.7-0.3-1c-0.2-0.3-0.4-0.6-0.8-0.8c-0.3-0.2-0.7-0.3-1.1-0.3c-0.3,0-0.6,0-0.8,0.1
		c-0.2,0.1-0.4,0.2-0.6,0.3l-0.4,0.5c-0.1,0.2-0.2,0.4-0.3,0.6c-0.1,0.2-0.1,0.5-0.1,0.8h-1c0-0.5,0.1-0.9,0.1-1.1
		c0.1-0.4,0.3-0.8,0.6-1.1c0.3-0.3,0.6-0.6,1-0.8c0.4-0.2,0.9-0.3,1.4-0.3c1,0,1.8,0.4,2.4,1.1c0.5,0.6,0.7,1.2,0.7,1.9
		c0,0.3,0,0.6-0.1,0.8c-0.1,0.2-0.2,0.5-0.3,0.6l-0.4,0.5c-0.3,0.4-0.7,0.8-1.1,1.1l-3.2,3h4.9v0.9H384.2z"/>
	<polygon id="XMLID_85_" class="st0" points="392.1,282.9 396.2,273.9 391.5,273.9 391.5,273 397.2,273 397.2,273.9 393.2,282.9 	
		"/>
	<path id="XMLID_89_" class="st0" d="M306.2,246c1.9,0,3.3-0.2,4.3-0.8c2.5-1.4,2.9-3.3,2.9-5.4c0-2.7-1.5-4.6-2.9-5.2
		c-0.8-0.5-1.8-0.8-4.6-0.9H301V246H306.2z M307.2,262.2c1.6,0,3.2-0.2,4.3-0.6c2.2-1,3.8-2.8,3.9-6.1c0-3-1.5-5.2-4-6.3
		c-1.6-0.7-2.6-0.7-5.2-0.7H301v13.8H307.2z M305.9,231.2c2.8,0,4.6,0.5,6,1.2c3.2,1.7,4.1,5,4.1,7.5c0,0.8,0,4.6-3.6,6.9
		c5.1,2.2,5.6,7.1,5.6,8.6c0,4.2-2.2,7-5.5,8.4c-1.5,0.5-3.2,0.8-5.3,0.8h-8.7v-33.4H305.9"/>
	<path id="XMLID_92_" class="st0" d="M322.8,252.5c0.1,5,3.4,10.3,10.4,10.3c6,0,10.1-4.7,10.1-10.3c0-6-4.4-10.3-10.3-10.3
		C327.4,242.2,322.8,246.4,322.8,252.5 M333.1,265.3c-3.9,0-7.2-1.5-9.4-3.9c-2.2-2.4-3.4-5.5-3.4-8.8c0-3.3,1.2-6.5,3.4-8.9
		c2.2-2.4,5.4-3.9,9.3-3.9c4.6,0,8.2,2.2,10.1,4.8v-4.2h2.5v23.7v0.6h-2.5v-4.3C341,263.4,337.4,265.3,333.1,265.3L333.1,265.3z"/>
	<path id="XMLID_93_" class="st0" d="M371.1,264.7v-12.8c0-3.9-1-6.2-2.6-7.6c-1.6-1.5-3.8-2-6.1-2c-5.5,0.1-8.7,3.1-8.7,8.6v13.9
		h-2.5v-24.3h2.5v3c2-2.4,5.4-3.5,8.4-3.6l0.3,0c3.1,0,5.7,0.8,7.6,2.4c2.4,2.1,3.6,5.4,3.6,9.6v12.8H371.1z"/>
	<path id="XMLID_94_" class="st0" d="M98,231.5c5.6-0.4,5.9,3.4,5.9,3.8v7.9c1.2-1,2.5-1.8,3.6-2.3c1.2-0.5,2.4-0.8,3.6-0.8
		c2.4,0,4.4,0.8,6,2.5c1.4,1.4,2.1,3.5,2.1,6.3v15.8h-5.9v-10.5c0-2.8-0.1-4.7-0.4-5.6c-0.3-1-0.7-1.7-1.4-2.2
		c-0.6-0.5-1.4-0.7-2.4-0.7c-1.2,0-2.3,0.4-3.1,1.2c-0.9,0.8-1.5,1.9-1.8,3.3c-0.2,0.7-0.3,2.4-0.3,4.9v9.6h-6V231.5"/>
	<path id="XMLID_95_" class="st0" d="M242.6,264.7l-9.2-12.7l8.1-11.3c0,0-5.9-1-8.2,2c-1.8,2.3-3.3,4.5-3.3,4.5l-4.7-6.5h-7
		l8.2,11.4l-9.3,12.6c0,0,6,1,8.3-2c1.4-1.8,1-1.3,4.4-5.8l5.7,7.8H242.6z"/>
	<path id="XMLID_96_" class="st0" d="M185.9,235.3c0-0.4-0.3-4.2-6-3.9v33.2h6L185.9,235.3z"/>
	<path id="XMLID_97_" class="st0" d="M387.5,252.3l9-11.9h-3.2l-11.7,15.6v-10.8v-5.3v-4.5v0v-2.4c0-0.2-0.1-1.8-2.5-1.6v33.4h2.5
		V260l4.3-5.8l8.1,10.4h3.2L387.5,252.3z"/>
	<path id="XMLID_98_" class="st0" d="M423.6,237.7l0.1,0.3l0.1,0.2c2.3,4.7,0.8,8.5,0,11l0,0.3c-0.5,1.9-0.7,3.7-0.8,5.5
		c0,3.8,0.9,7.4,1.8,10.1l-0.1,0.1l0.1,0.2l0,0.1c-0.4,0.8-0.8,1.7-1,2.9l-0.1,0.7l-3.6-8l-0.1,0.1l0-0.1l-3.6,8.2l-0.1-0.9
		c-0.2-1.2-0.6-2.1-1-2.9l0-0.1c1.5-3.8,2.4-9,1.3-14.5C418.1,249,421.1,243,423.6,237.7"/>
	<path id="XMLID_106_" class="st0" d="M430.4,221.8c0,0-0.1,0-0.3,0.4c-0.3,0.4-0.8,0.2-0.8,0.2c0.3-0.1,0.2-0.2,0.5-0.5
		C430.1,221.7,430.4,221.8,430.4,221.8 M430.9,219.9l0.4,0.9c0,0,0.4,0.9-0.4,0.9c-0.8,0-0.5-0.9-0.5-0.9L430.9,219.9z M430.9,222.9
		l-0.4-0.5c0,0-0.3-0.5,0.4-0.5c0.7,0,0.4,0.5,0.4,0.5L430.9,222.9z M432.5,219.9c-0.3,0.2-0.1,1-0.4,1.4c-0.2,0.2-0.6,0.3-0.6,0.3
		c0.2-0.4,0-0.5,0.1-1C431.7,219.8,432.5,219.9,432.5,219.9 M429.3,219.9c0,0,0.8,0,0.9,0.6c0.1,0.5-0.1,0.6,0.1,1
		c0,0-0.4,0-0.6-0.3C429.4,220.9,429.6,220,429.3,219.9 M431.4,221.8c0,0,0.4-0.1,0.6,0.2c0.2,0.3,0.2,0.4,0.5,0.5
		c0,0-0.5,0.2-0.8-0.2C431.4,221.8,431.4,221.8,431.4,221.8"/>
	<path id="XMLID_107_" class="st0" d="M420,263.6l-3,6.8c0,0-2.3,6.6,3,6.6c5.4,0,2.9-6.7,2.9-6.7L420,263.6z"/>
	<path id="XMLID_108_" class="st0" d="M420,285.6l2.7-3.9c0,0,2.1-3.7-2.7-3.7c-4.9,0-2.6,3.8-2.6,3.8L420,285.6z"/>
	<path id="XMLID_112_" class="st0" d="M430.3,263.3c0,0-4.9-0.3-5.8,4.9c-0.4,3.8,0.9,4.8-0.8,8c0,0,2.8-0.3,4.1-2.2
		C429.9,271.2,428.7,264.6,430.3,263.3"/>
	<path id="XMLID_113_" class="st0" d="M409.6,263.3c0,0,4.9-0.3,5.7,4.9c0.4,3.8-0.9,4.8,0.7,8c0,0-2.8-0.3-4.1-2.2
		C410,271.2,411.2,264.6,409.6,263.3"/>
	<path id="XMLID_114_" class="st0" d="M423.2,277.6c0,0,2.6-0.6,4.1,1.4c1.6,2,1.4,2.7,3.1,3.5c0,0-3.2,1.5-5.1-1.7
		C423.6,277.6,423.2,277.6,423.2,277.6"/>
	<path id="XMLID_115_" class="st0" d="M416.9,277.6c0,0-2.6-0.6-4.1,1.4c-1.6,2-1.4,2.7-3.1,3.5c0,0,3.3,1.5,5.1-1.7
		C416.5,277.6,416.9,277.6,416.9,277.6"/>
	<path id="XMLID_116_" class="st0" d="M421.1,216.3c1.8,0.5,1.9,2.1,2,2.5c-0.6-0.3-1.4-0.5-2.3-0.5c-1,0-1.8,0.1-2.4,0.5l-0.2,0.1
		c0.3-2,2-2.6,2-2.6v-1.7c0.5-0.5,0.9,0,0.9,0V216.3z"/>
	<path id="XMLID_117_" class="st0" d="M420.5,219.1c0,0,1.8-0.3,2.2,1.2c0.4,1.5,0.1,1.5,1.3,3c1.3,1.5,0.6,2.4,0.3,2.4
		c-0.3-0.1-1.3-1.2-1.8-1c-0.5,0.3-1,1.3-2,1.2c-1-0.1-1.7-1.5-2.2-1.3c-0.5,0.1-1.4,0.9-1.5,1c-0.3,0.1-1.4-0.4-0.5-1.8
		c0.9-1.5,1.1-0.4,1.9-2.4C419,219.4,419.2,219.2,420.5,219.1"/>
	<path id="XMLID_124_" class="st0" d="M408.7,221.8c0,0,0,0-0.3,0.4c-0.3,0.4-0.8,0.2-0.8,0.2c0.3-0.1,0.2-0.2,0.5-0.5
		C408.3,221.7,408.7,221.8,408.7,221.8 M409.2,219.9l0.4,0.9c0,0,0.4,0.9-0.4,0.9c-0.8,0-0.4-0.9-0.4-0.9L409.2,219.9z M409.2,222.9
		l-0.4-0.5c0,0-0.3-0.5,0.4-0.5c0.7,0,0.4,0.5,0.4,0.5L409.2,222.9z M410.7,219.9c-0.3,0.2-0.1,1-0.4,1.4c-0.2,0.2-0.6,0.3-0.6,0.3
		c0.3-0.4,0.1-0.5,0.1-1C410,219.8,410.7,219.9,410.7,219.9 M407.6,219.9c0,0,0.7,0,0.9,0.6c0.1,0.5-0.1,0.6,0.1,1
		c0,0-0.4,0-0.6-0.3C407.7,220.9,407.8,220,407.6,219.9 M409.7,221.8c0,0,0.4-0.1,0.6,0.2c0.2,0.3,0.2,0.4,0.5,0.5
		c0,0-0.5,0.2-0.8-0.2C409.7,221.8,409.7,221.8,409.7,221.8"/>
	<path id="XMLID_125_" class="st0" d="M416.3,249.1L416.3,249.1c-0.8-2.5-2.4-6.3-0.1-11.1l0.1-0.2c0.2-0.5,0.5-0.9,0.7-1.5
		c0.3-0.8-0.2-1.8-0.6-2.5l7-6.8l3.3,1.2l-0.1,0.4C424.4,233.4,418.6,246.1,416.3,249.1"/>
	<path id="XMLID_128_" class="st0" d="M432.5,224.9c-0.3-1.1-1.4-1.8-1.7-1.4c0,0-0.6,0.6-0.4,1.4c0.2,0.8,0.4,2,0.1,2.6
		c-0.3,0.6-2.1,2.1-3.1,2.8l-0.3,0.2c-0.4,1-1,2.2-1.7,3.6l0.2,0.7l0.1,0.3l0,0.1c0.2-0.1,1-0.3,2.1-0.8l-0.1-0.3
		c-0.1-0.4-0.1-0.6-0.2-1.1l0.1-0.1c0.4-0.1,0.7-0.3,1.1-0.6c1.2-1,2.6-3.1,3.3-5.3c0.4-1.2,0.4-1.1,0.4-1.1
		C432.4,225.8,432.5,225.3,432.5,224.9 M428,235.2c-0.7,0.4-1.9,0.8-2.1,0.8l0.3,1c0,0.4,0,0.9,0.2,1.3c0.5,2,2.4,4.3,2.6,5.6
		c0.2,1.3,0.4,3,0.9,3.4c0.4,0.4,1-1.7,1-2.4c0.1-0.7,0.6,0.2,0.7-0.3l0-0.1c0.1-0.6-1.7-1.3-2.3-3.9
		C428.9,238.6,428.2,236,428,235.2"/>
	<path id="XMLID_148_" class="st0" d="M413.7,235.1l-0.1,0.4v0l-0.1,0.6c-0.1,0.3-0.2,0.6-0.2,0.6c-0.7,1.1-2.9,4.6-3.6,4.7
		c-0.9,0.1-1.8-1-1.8-1c-1.7-1-3.4,0.4-3.7,0.9c-0.3,0.5,0.7,0.5,1.8,0.7c1.1,0.3,2.1,1.1,4.1,0.3c1.6-0.7,3.6-2.6,4.6-3.8
		c0.1-0.1,0.3-0.3,0.4-0.6c0.1-0.2,0.3-1.1,0.4-1.7l0.1-0.4C414.6,235.6,413.7,235.1,413.7,235.1 M422.1,226.8c-2.9-0.3-5.9,0.5-7,2
		c-0.2,0.3-0.5,1.4-0.8,2.5c-0.9-0.4-1.7-1-1.7-1c-1-0.6-2.8-2.2-3.1-2.8c-0.4-0.6-0.1-1.8,0.1-2.6c0.2-0.8-0.4-1.4-0.4-1.4
		c-0.2-0.4-1.4,0.3-1.7,1.4c-0.1,0.4,0.1,0.9,0.1,0.9c0,0,0-0.1,0.4,1.1c0.7,2.3,2.1,4.3,3.3,5.3c0.3,0.2,1.1,0.7,2.6,1.3
		c-0.1,0.4-0.1,0.7-0.2,0.9c0.4,0.3,1.9,0.8,1.9,0.8c0.1-0.8,0.4-2.1,0.4-2.4l0-0.1l6.1-5.9L422.1,226.8z"/>
</g>
</svg>
